<mxfile host="app.diagrams.net" modified="2023-12-03T16:00:41.786Z" agent="Mozilla/5.0 (Windows NT 10.0; Win64; x64) AppleWebKit/537.36 (KHTML, like Gecko) Chrome/119.0.0.0 Safari/537.36 Edg/119.0.0.0" version="22.1.5" etag="Qoj5ZVZbm7c__0bky1qu" type="github">
  <diagram name="Halaman-1" id="IM26dzPS9-Etfgp929xB">
    <mxGraphModel>
      <root>
        <mxCell id="0" />
        <mxCell id="1" parent="0" />
      </root>
    </mxGraphModel>
  </diagram>
</mxfile>
